<?xml version="1.0" encoding="utf-8" ?>
<svg baseProfile="full" height="175px" version="1.1" viewBox="0,0,815,175" width="815px" xmlns="http://www.w3.org/2000/svg" xmlns:ev="http://www.w3.org/2001/xml-events" xmlns:xlink="http://www.w3.org/1999/xlink"><defs><style type="text/css"><![CDATA[/* 基础样式 */
.title {
    font-family: 'Segoe UI', Tahoma, Geneva, Verdana, sans-serif;
    font-size: 16px;
    fill: #2c3e50;
    font-weight: bold;
}

.cell {
    stroke: #34495e;
    stroke-width: 1;
    rx: 4;
    ry: 4;
    transition: all 0.3s ease;
}

/* 格子类型 */
.cell.safe { fill: #2ecc71; }
.cell.mine { fill: #e74c3c; }
.cell.empty { fill: #3498db; }

/* 数字样式 */
.number {
    font-family: 'Courier New', monospace;
    font-weight: bold;
    text-anchor: middle;
    font-size: 14px;
    fill: #2c3e50;
}

/* 数字颜色 */
.num-1 { fill: #3498db; }
.num-2 { fill: #2ecc71; }
.num-3 { fill: #e74c3c; }
.num-4 { fill: #9b59b6; }
.num-5 { fill: #e67e22; }
.num-6 { fill: #1abc9c; }
.num-7 { fill: #d35400; }
.num-8 { fill: #2c3e50; }

.emoji {
    font-size: 16px;
    text-anchor: middle;
}

.legend-text {
    font-family: Arial, sans-serif;
    font-size: 12px;
    fill: #34495e;
}
]]></style></defs><text class="title" text-anchor="middle" x="407.5" y="20">GitHub Minesweeper - jamespaulzhang (Updated: 2025-09-20 01:27 UTC)</text><rect class="cell empty" height="13" width="13" x="10" y="40" /><text class="number num-2" x="17.5" y="53.5">2</text><rect class="cell mine" height="13" width="13" x="10" y="55" /><text class="emoji" x="11.5" y="68.5">💣</text><rect class="cell mine" height="13" width="13" x="10" y="70" /><text class="emoji" x="11.5" y="83.5">💣</text><rect class="cell safe" height="13" width="13" x="10" y="85" /><text class="number num-2" x="17.5" y="98.5">2</text><rect class="cell mine" height="13" width="13" x="10" y="100" /><text class="emoji" x="11.5" y="113.5">💣</text><rect class="cell mine" height="13" width="13" x="10" y="115" /><text class="emoji" x="11.5" y="128.5">💣</text><rect class="cell mine" height="13" width="13" x="10" y="130" /><text class="emoji" x="11.5" y="143.5">💣</text><rect class="cell mine" height="13" width="13" x="25" y="40" /><text class="emoji" x="26.5" y="53.5">💣</text><rect class="cell empty" height="13" width="13" x="25" y="55" /><text class="number num-6" x="32.5" y="68.5">6</text><rect class="cell empty" height="13" width="13" x="25" y="70" /><text class="number num-4" x="32.5" y="83.5">4</text><rect class="cell safe" height="13" width="13" x="25" y="85" /><text class="number num-3" x="32.5" y="98.5">3</text><rect class="cell empty" height="13" width="13" x="25" y="100" /><text class="number num-4" x="32.5" y="113.5">4</text><rect class="cell mine" height="13" width="13" x="25" y="115" /><text class="emoji" x="26.5" y="128.5">💣</text><rect class="cell safe" height="13" width="13" x="25" y="130" /><text class="number num-4" x="32.5" y="143.5">4</text><rect class="cell mine" height="13" width="13" x="40" y="40" /><text class="emoji" x="41.5" y="53.5">💣</text><rect class="cell mine" height="13" width="13" x="40" y="55" /><text class="emoji" x="41.5" y="68.5">💣</text><rect class="cell mine" height="13" width="13" x="40" y="70" /><text class="emoji" x="41.5" y="83.5">💣</text><rect class="cell safe" height="13" width="13" x="40" y="85" /><text class="number num-4" x="47.5" y="98.5">4</text><rect class="cell empty" height="13" width="13" x="40" y="100" /><text class="number num-5" x="47.5" y="113.5">5</text><rect class="cell mine" height="13" width="13" x="40" y="115" /><text class="emoji" x="41.5" y="128.5">💣</text><rect class="cell safe" height="13" width="13" x="40" y="130" /><text class="number num-4" x="47.5" y="143.5">4</text><rect class="cell mine" height="13" width="13" x="55" y="40" /><text class="emoji" x="56.5" y="53.5">💣</text><rect class="cell mine" height="13" width="13" x="55" y="55" /><text class="emoji" x="56.5" y="68.5">💣</text><rect class="cell mine" height="13" width="13" x="55" y="70" /><text class="emoji" x="56.5" y="83.5">💣</text><rect class="cell mine" height="13" width="13" x="55" y="85" /><text class="emoji" x="56.5" y="98.5">💣</text><rect class="cell mine" height="13" width="13" x="55" y="100" /><text class="emoji" x="56.5" y="113.5">💣</text><rect class="cell mine" height="13" width="13" x="55" y="115" /><text class="emoji" x="56.5" y="128.5">💣</text><rect class="cell mine" height="13" width="13" x="55" y="130" /><text class="emoji" x="56.5" y="143.5">💣</text><rect class="cell empty" height="13" width="13" x="70" y="40" /><text class="number num-5" x="77.5" y="53.5">5</text><rect class="cell mine" height="13" width="13" x="70" y="55" /><text class="emoji" x="71.5" y="68.5">💣</text><rect class="cell mine" height="13" width="13" x="70" y="70" /><text class="emoji" x="71.5" y="83.5">💣</text><rect class="cell mine" height="13" width="13" x="70" y="85" /><text class="emoji" x="71.5" y="98.5">💣</text><rect class="cell empty" height="13" width="13" x="70" y="100" /><text class="number num-8" x="77.5" y="113.5">8</text><rect class="cell mine" height="13" width="13" x="70" y="115" /><text class="emoji" x="71.5" y="128.5">💣</text><rect class="cell empty" height="13" width="13" x="70" y="130" /><text class="number num-4" x="77.5" y="143.5">4</text><rect class="cell mine" height="13" width="13" x="85" y="40" /><text class="emoji" x="86.5" y="53.5">💣</text><rect class="cell mine" height="13" width="13" x="85" y="55" /><text class="emoji" x="86.5" y="68.5">💣</text><rect class="cell mine" height="13" width="13" x="85" y="70" /><text class="emoji" x="86.5" y="83.5">💣</text><rect class="cell mine" height="13" width="13" x="85" y="85" /><text class="emoji" x="86.5" y="98.5">💣</text><rect class="cell mine" height="13" width="13" x="85" y="100" /><text class="emoji" x="86.5" y="113.5">💣</text><rect class="cell mine" height="13" width="13" x="85" y="115" /><text class="emoji" x="86.5" y="128.5">💣</text><rect class="cell empty" height="13" width="13" x="85" y="130" /><text class="number num-3" x="92.5" y="143.5">3</text><rect class="cell mine" height="13" width="13" x="100" y="40" /><text class="emoji" x="101.5" y="53.5">💣</text><rect class="cell mine" height="13" width="13" x="100" y="55" /><text class="emoji" x="101.5" y="68.5">💣</text><rect class="cell empty" height="13" width="13" x="100" y="70" /><text class="number num-6" x="107.5" y="83.5">6</text><rect class="cell mine" height="13" width="13" x="100" y="85" /><text class="emoji" x="101.5" y="98.5">💣</text><rect class="cell empty" height="13" width="13" x="100" y="100" /><text class="number num-6" x="107.5" y="113.5">6</text><rect class="cell mine" height="13" width="13" x="100" y="115" /><text class="emoji" x="101.5" y="128.5">💣</text><rect class="cell empty" height="13" width="13" x="100" y="130" /><text class="number num-3" x="107.5" y="143.5">3</text><rect class="cell empty" height="13" width="13" x="115" y="40" /><text class="number num-2" x="122.5" y="53.5">2</text><rect class="cell empty" height="13" width="13" x="115" y="55" /><text class="number num-2" x="122.5" y="68.5">2</text><rect class="cell empty" height="13" width="13" x="115" y="70" /><text class="number num-3" x="122.5" y="83.5">3</text><rect class="cell mine" height="13" width="13" x="115" y="85" /><text class="emoji" x="116.5" y="98.5">💣</text><rect class="cell empty" height="13" width="13" x="115" y="100" /><text class="number num-4" x="122.5" y="113.5">4</text><rect class="cell safe" height="13" width="13" x="115" y="115" /><text class="number num-3" x="122.5" y="128.5">3</text><rect class="cell mine" height="13" width="13" x="115" y="130" /><text class="emoji" x="116.5" y="143.5">💣</text><rect class="cell safe" height="13" width="13" x="130" y="40" /><text class="number num-1" x="137.5" y="53.5">1</text><rect class="cell safe" height="13" width="13" x="130" y="55" /><text class="number num-2" x="137.5" y="68.5">2</text><rect class="cell safe" height="13" width="13" x="130" y="70" /><text class="number num-3" x="137.5" y="83.5">3</text><rect class="cell safe" height="13" width="13" x="130" y="85" /><text class="number num-5" x="137.5" y="98.5">5</text><rect class="cell mine" height="13" width="13" x="130" y="100" /><text class="emoji" x="131.5" y="113.5">💣</text><rect class="cell safe" height="13" width="13" x="130" y="115" /><text class="number num-4" x="137.5" y="128.5">4</text><rect class="cell safe" height="13" width="13" x="130" y="130" /><text class="number num-2" x="137.5" y="143.5">2</text><rect class="cell mine" height="13" width="13" x="145" y="40" /><text class="emoji" x="146.5" y="53.5">💣</text><rect class="cell safe" height="13" width="13" x="145" y="55" /><text class="number num-4" x="152.5" y="68.5">4</text><rect class="cell mine" height="13" width="13" x="145" y="70" /><text class="emoji" x="146.5" y="83.5">💣</text><rect class="cell mine" height="13" width="13" x="145" y="85" /><text class="emoji" x="146.5" y="98.5">💣</text><rect class="cell mine" height="13" width="13" x="145" y="100" /><text class="emoji" x="146.5" y="113.5">💣</text><rect class="cell mine" height="13" width="13" x="145" y="115" /><text class="emoji" x="146.5" y="128.5">💣</text><rect class="cell safe" height="13" width="13" x="145" y="130" /><text class="number num-2" x="152.5" y="143.5">2</text><rect class="cell mine" height="13" width="13" x="160" y="40" /><text class="emoji" x="161.5" y="53.5">💣</text><rect class="cell mine" height="13" width="13" x="160" y="55" /><text class="emoji" x="161.5" y="68.5">💣</text><rect class="cell empty" height="13" width="13" x="160" y="70" /><text class="number num-6" x="167.5" y="83.5">6</text><rect class="cell mine" height="13" width="13" x="160" y="85" /><text class="emoji" x="161.5" y="98.5">💣</text><rect class="cell mine" height="13" width="13" x="160" y="100" /><text class="emoji" x="161.5" y="113.5">💣</text><rect class="cell empty" height="13" width="13" x="160" y="115" /><text class="number num-6" x="167.5" y="128.5">6</text><rect class="cell mine" height="13" width="13" x="160" y="130" /><text class="emoji" x="161.5" y="143.5">💣</text><rect class="cell empty" height="13" width="13" x="175" y="40" /><text class="number num-4" x="182.5" y="53.5">4</text><rect class="cell mine" height="13" width="13" x="175" y="55" /><text class="emoji" x="176.5" y="68.5">💣</text><rect class="cell mine" height="13" width="13" x="175" y="70" /><text class="emoji" x="176.5" y="83.5">💣</text><rect class="cell safe" height="13" width="13" x="175" y="85" /><text class="number num-5" x="182.5" y="98.5">5</text><rect class="cell mine" height="13" width="13" x="175" y="100" /><text class="emoji" x="176.5" y="113.5">💣</text><rect class="cell mine" height="13" width="13" x="175" y="115" /><text class="emoji" x="176.5" y="128.5">💣</text><rect class="cell safe" height="13" width="13" x="175" y="130" /><text class="number num-4" x="182.5" y="143.5">4</text><rect class="cell mine" height="13" width="13" x="190" y="40" /><text class="emoji" x="191.5" y="53.5">💣</text><rect class="cell empty" height="13" width="13" x="190" y="55" /><text class="number num-6" x="197.5" y="68.5">6</text><rect class="cell empty" height="13" width="13" x="190" y="70" /><text class="number num-4" x="197.5" y="83.5">4</text><rect class="cell empty" height="13" width="13" x="190" y="85" /><text class="number num-5" x="197.5" y="98.5">5</text><rect class="cell mine" height="13" width="13" x="190" y="100" /><text class="emoji" x="191.5" y="113.5">💣</text><rect class="cell mine" height="13" width="13" x="190" y="115" /><text class="emoji" x="191.5" y="128.5">💣</text><rect class="cell mine" height="13" width="13" x="190" y="130" /><text class="emoji" x="191.5" y="143.5">💣</text><rect class="cell mine" height="13" width="13" x="205" y="40" /><text class="emoji" x="206.5" y="53.5">💣</text><rect class="cell mine" height="13" width="13" x="205" y="55" /><text class="emoji" x="206.5" y="68.5">💣</text><rect class="cell mine" height="13" width="13" x="205" y="70" /><text class="emoji" x="206.5" y="83.5">💣</text><rect class="cell empty" height="13" width="13" x="205" y="85" /><text class="number num-5" x="212.5" y="98.5">5</text><rect class="cell mine" height="13" width="13" x="205" y="100" /><text class="emoji" x="206.5" y="113.5">💣</text><rect class="cell empty" height="13" width="13" x="205" y="115" /><text class="number num-5" x="212.5" y="128.5">5</text><rect class="cell empty" height="13" width="13" x="205" y="130" /><text class="number num-3" x="212.5" y="143.5">3</text><rect class="cell mine" height="13" width="13" x="220" y="40" /><text class="emoji" x="221.5" y="53.5">💣</text><rect class="cell mine" height="13" width="13" x="220" y="55" /><text class="emoji" x="221.5" y="68.5">💣</text><rect class="cell mine" height="13" width="13" x="220" y="70" /><text class="emoji" x="221.5" y="83.5">💣</text><rect class="cell mine" height="13" width="13" x="220" y="85" /><text class="emoji" x="221.5" y="98.5">💣</text><rect class="cell empty" height="13" width="13" x="220" y="100" /><text class="number num-3" x="227.5" y="113.5">3</text><rect class="cell empty" height="13" width="13" x="220" y="115" /><text class="number num-3" x="227.5" y="128.5">3</text><rect class="cell mine" height="13" width="13" x="220" y="130" /><text class="emoji" x="221.5" y="143.5">💣</text><rect class="cell empty" height="13" width="13" x="235" y="40" /><text class="number num-5" x="242.5" y="53.5">5</text><rect class="cell mine" height="13" width="13" x="235" y="55" /><text class="emoji" x="236.5" y="68.5">💣</text><rect class="cell mine" height="13" width="13" x="235" y="70" /><text class="emoji" x="236.5" y="83.5">💣</text><rect class="cell empty" height="13" width="13" x="235" y="85" /><text class="number num-6" x="242.5" y="98.5">6</text><rect class="cell empty" height="13" width="13" x="235" y="100" /><text class="number num-5" x="242.5" y="113.5">5</text><rect class="cell mine" height="13" width="13" x="235" y="115" /><text class="emoji" x="236.5" y="128.5">💣</text><rect class="cell empty" height="13" width="13" x="235" y="130" /><text class="number num-4" x="242.5" y="143.5">4</text><rect class="cell mine" height="13" width="13" x="250" y="40" /><text class="emoji" x="251.5" y="53.5">💣</text><rect class="cell mine" height="13" width="13" x="250" y="55" /><text class="emoji" x="251.5" y="68.5">💣</text><rect class="cell mine" height="13" width="13" x="250" y="70" /><text class="emoji" x="251.5" y="83.5">💣</text><rect class="cell mine" height="13" width="13" x="250" y="85" /><text class="emoji" x="251.5" y="98.5">💣</text><rect class="cell mine" height="13" width="13" x="250" y="100" /><text class="emoji" x="251.5" y="113.5">💣</text><rect class="cell mine" height="13" width="13" x="250" y="115" /><text class="emoji" x="251.5" y="128.5">💣</text><rect class="cell mine" height="13" width="13" x="250" y="130" /><text class="emoji" x="251.5" y="143.5">💣</text><rect class="cell mine" height="13" width="13" x="265" y="40" /><text class="emoji" x="266.5" y="53.5">💣</text><rect class="cell mine" height="13" width="13" x="265" y="55" /><text class="emoji" x="266.5" y="68.5">💣</text><rect class="cell mine" height="13" width="13" x="265" y="70" /><text class="emoji" x="266.5" y="83.5">💣</text><rect class="cell empty" height="13" width="13" x="265" y="85" /><text class="number num-5" x="272.5" y="98.5">5</text><rect class="cell empty" height="13" width="13" x="265" y="100" /><text class="number num-5" x="272.5" y="113.5">5</text><rect class="cell mine" height="13" width="13" x="265" y="115" /><text class="emoji" x="266.5" y="128.5">💣</text><rect class="cell mine" height="13" width="13" x="265" y="130" /><text class="emoji" x="266.5" y="143.5">💣</text><rect class="cell mine" height="13" width="13" x="280" y="40" /><text class="emoji" x="281.5" y="53.5">💣</text><rect class="cell safe" height="13" width="13" x="280" y="55" /><text class="number num-7" x="287.5" y="68.5">7</text><rect class="cell safe" height="13" width="13" x="280" y="70" /><text class="number num-5" x="287.5" y="83.5">5</text><rect class="cell mine" height="13" width="13" x="280" y="85" /><text class="emoji" x="281.5" y="98.5">💣</text><rect class="cell safe" height="13" width="13" x="280" y="100" /><text class="number num-3" x="287.5" y="113.5">3</text><rect class="cell safe" height="13" width="13" x="280" y="115" /><text class="number num-4" x="287.5" y="128.5">4</text><rect class="cell mine" height="13" width="13" x="280" y="130" /><text class="emoji" x="281.5" y="143.5">💣</text><rect class="cell mine" height="13" width="13" x="295" y="40" /><text class="emoji" x="296.5" y="53.5">💣</text><rect class="cell mine" height="13" width="13" x="295" y="55" /><text class="emoji" x="296.5" y="68.5">💣</text><rect class="cell mine" height="13" width="13" x="295" y="70" /><text class="emoji" x="296.5" y="83.5">💣</text><rect class="cell empty" height="13" width="13" x="295" y="85" /><text class="number num-3" x="302.5" y="98.5">3</text><rect class="cell empty" height="13" width="13" x="295" y="100" /><text class="number num-3" x="302.5" y="113.5">3</text><rect class="cell mine" height="13" width="13" x="295" y="115" /><text class="emoji" x="296.5" y="128.5">💣</text><rect class="cell empty" height="13" width="13" x="295" y="130" /><text class="number num-3" x="302.5" y="143.5">3</text><rect class="cell safe" height="13" width="13" x="310" y="40" /><text class="number num-2" x="317.5" y="53.5">2</text><rect class="cell safe" height="13" width="13" x="310" y="55" /><text class="number num-4" x="317.5" y="68.5">4</text><rect class="cell mine" height="13" width="13" x="310" y="70" /><text class="emoji" x="311.5" y="83.5">💣</text><rect class="cell safe" height="13" width="13" x="310" y="85" /><text class="number num-2" x="317.5" y="98.5">2</text><rect class="cell safe" height="13" width="13" x="310" y="100" /><text class="number num-2" x="317.5" y="113.5">2</text><rect class="cell mine" height="13" width="13" x="310" y="115" /><text class="emoji" x="311.5" y="128.5">💣</text><rect class="cell safe" height="13" width="13" x="310" y="130" /><text class="number num-2" x="317.5" y="143.5">2</text><rect class="cell safe" height="13" width="13" x="325" y="40" /><rect class="cell safe" height="13" width="13" x="325" y="55" /><text class="number num-1" x="332.5" y="68.5">1</text><rect class="cell safe" height="13" width="13" x="325" y="70" /><text class="number num-1" x="332.5" y="83.5">1</text><rect class="cell safe" height="13" width="13" x="325" y="85" /><text class="number num-2" x="332.5" y="98.5">2</text><rect class="cell safe" height="13" width="13" x="325" y="100" /><text class="number num-3" x="332.5" y="113.5">3</text><rect class="cell safe" height="13" width="13" x="325" y="115" /><text class="number num-3" x="332.5" y="128.5">3</text><rect class="cell safe" height="13" width="13" x="325" y="130" /><text class="number num-2" x="332.5" y="143.5">2</text><rect class="cell safe" height="13" width="13" x="340" y="40" /><text class="number num-2" x="347.5" y="53.5">2</text><rect class="cell safe" height="13" width="13" x="340" y="55" /><text class="number num-3" x="347.5" y="68.5">3</text><rect class="cell safe" height="13" width="13" x="340" y="70" /><text class="number num-3" x="347.5" y="83.5">3</text><rect class="cell safe" height="13" width="13" x="340" y="85" /><text class="number num-4" x="347.5" y="98.5">4</text><rect class="cell mine" height="13" width="13" x="340" y="100" /><text class="emoji" x="341.5" y="113.5">💣</text><rect class="cell mine" height="13" width="13" x="340" y="115" /><text class="emoji" x="341.5" y="128.5">💣</text><rect class="cell safe" height="13" width="13" x="340" y="130" /><text class="number num-3" x="347.5" y="143.5">3</text><rect class="cell mine" height="13" width="13" x="355" y="40" /><text class="emoji" x="356.5" y="53.5">💣</text><rect class="cell mine" height="13" width="13" x="355" y="55" /><text class="emoji" x="356.5" y="68.5">💣</text><rect class="cell mine" height="13" width="13" x="355" y="70" /><text class="emoji" x="356.5" y="83.5">💣</text><rect class="cell mine" height="13" width="13" x="355" y="85" /><text class="emoji" x="356.5" y="98.5">💣</text><rect class="cell mine" height="13" width="13" x="355" y="100" /><text class="emoji" x="356.5" y="113.5">💣</text><rect class="cell mine" height="13" width="13" x="355" y="115" /><text class="emoji" x="356.5" y="128.5">💣</text><rect class="cell mine" height="13" width="13" x="355" y="130" /><text class="emoji" x="356.5" y="143.5">💣</text><rect class="cell mine" height="13" width="13" x="370" y="40" /><text class="emoji" x="371.5" y="53.5">💣</text><rect class="cell empty" height="13" width="13" x="370" y="55" /><text class="number num-5" x="377.5" y="68.5">5</text><rect class="cell empty" height="13" width="13" x="370" y="70" /><text class="number num-3" x="377.5" y="83.5">3</text><rect class="cell safe" height="13" width="13" x="370" y="85" /><text class="number num-4" x="377.5" y="98.5">4</text><rect class="cell safe" height="13" width="13" x="370" y="100" /><text class="number num-6" x="377.5" y="113.5">6</text><rect class="cell mine" height="13" width="13" x="370" y="115" /><text class="emoji" x="371.5" y="128.5">💣</text><rect class="cell mine" height="13" width="13" x="370" y="130" /><text class="emoji" x="371.5" y="143.5">💣</text><rect class="cell mine" height="13" width="13" x="385" y="40" /><text class="emoji" x="386.5" y="53.5">💣</text><rect class="cell safe" height="13" width="13" x="385" y="55" /><text class="number num-4" x="392.5" y="68.5">4</text><rect class="cell safe" height="13" width="13" x="385" y="70" /><text class="number num-1" x="392.5" y="83.5">1</text><rect class="cell safe" height="13" width="13" x="385" y="85" /><text class="number num-2" x="392.5" y="98.5">2</text><rect class="cell mine" height="13" width="13" x="385" y="100" /><text class="emoji" x="386.5" y="113.5">💣</text><rect class="cell mine" height="13" width="13" x="385" y="115" /><text class="emoji" x="386.5" y="128.5">💣</text><rect class="cell mine" height="13" width="13" x="385" y="130" /><text class="emoji" x="386.5" y="143.5">💣</text><rect class="cell mine" height="13" width="13" x="400" y="40" /><text class="emoji" x="401.5" y="53.5">💣</text><rect class="cell safe" height="13" width="13" x="400" y="55" /><text class="number num-4" x="407.5" y="68.5">4</text><rect class="cell mine" height="13" width="13" x="400" y="70" /><text class="emoji" x="401.5" y="83.5">💣</text><rect class="cell empty" height="13" width="13" x="400" y="85" /><text class="number num-3" x="407.5" y="98.5">3</text><rect class="cell empty" height="13" width="13" x="400" y="100" /><text class="number num-4" x="407.5" y="113.5">4</text><rect class="cell mine" height="13" width="13" x="400" y="115" /><text class="emoji" x="401.5" y="128.5">💣</text><rect class="cell empty" height="13" width="13" x="400" y="130" /><text class="number num-3" x="407.5" y="143.5">3</text><rect class="cell empty" height="13" width="13" x="415" y="40" /><text class="number num-2" x="422.5" y="53.5">2</text><rect class="cell mine" height="13" width="13" x="415" y="55" /><text class="emoji" x="416.5" y="68.5">💣</text><rect class="cell safe" height="13" width="13" x="415" y="70" /><text class="number num-3" x="422.5" y="83.5">3</text><rect class="cell mine" height="13" width="13" x="415" y="85" /><text class="emoji" x="416.5" y="98.5">💣</text><rect class="cell safe" height="13" width="13" x="415" y="100" /><text class="number num-3" x="422.5" y="113.5">3</text><rect class="cell safe" height="13" width="13" x="415" y="115" /><text class="number num-2" x="422.5" y="128.5">2</text><rect class="cell empty" height="13" width="13" x="415" y="130" /><text class="number num-2" x="422.5" y="143.5">2</text><rect class="cell safe" height="13" width="13" x="430" y="40" /><text class="number num-3" x="437.5" y="53.5">3</text><rect class="cell safe" height="13" width="13" x="430" y="55" /><text class="number num-4" x="437.5" y="68.5">4</text><rect class="cell safe" height="13" width="13" x="430" y="70" /><text class="number num-4" x="437.5" y="83.5">4</text><rect class="cell empty" height="13" width="13" x="430" y="85" /><text class="number num-3" x="437.5" y="98.5">3</text><rect class="cell safe" height="13" width="13" x="430" y="100" /><text class="number num-4" x="437.5" y="113.5">4</text><rect class="cell mine" height="13" width="13" x="430" y="115" /><text class="emoji" x="431.5" y="128.5">💣</text><rect class="cell safe" height="13" width="13" x="430" y="130" /><text class="number num-3" x="437.5" y="143.5">3</text><rect class="cell mine" height="13" width="13" x="445" y="40" /><text class="emoji" x="446.5" y="53.5">💣</text><rect class="cell mine" height="13" width="13" x="445" y="55" /><text class="emoji" x="446.5" y="68.5">💣</text><rect class="cell mine" height="13" width="13" x="445" y="70" /><text class="emoji" x="446.5" y="83.5">💣</text><rect class="cell empty" height="13" width="13" x="445" y="85" /><text class="number num-4" x="452.5" y="98.5">4</text><rect class="cell mine" height="13" width="13" x="445" y="100" /><text class="emoji" x="446.5" y="113.5">💣</text><rect class="cell mine" height="13" width="13" x="445" y="115" /><text class="emoji" x="446.5" y="128.5">💣</text><rect class="cell mine" height="13" width="13" x="445" y="130" /><text class="emoji" x="446.5" y="143.5">💣</text><rect class="cell mine" height="13" width="13" x="460" y="40" /><text class="emoji" x="461.5" y="53.5">💣</text><rect class="cell empty" height="13" width="13" x="460" y="55" /><text class="number num-6" x="467.5" y="68.5">6</text><rect class="cell mine" height="13" width="13" x="460" y="70" /><text class="emoji" x="461.5" y="83.5">💣</text><rect class="cell mine" height="13" width="13" x="460" y="85" /><text class="emoji" x="461.5" y="98.5">💣</text><rect class="cell empty" height="13" width="13" x="460" y="100" /><text class="number num-5" x="467.5" y="113.5">5</text><rect class="cell mine" height="13" width="13" x="460" y="115" /><text class="emoji" x="461.5" y="128.5">💣</text><rect class="cell safe" height="13" width="13" x="460" y="130" /><text class="number num-4" x="467.5" y="143.5">4</text><rect class="cell empty" height="13" width="13" x="475" y="40" /><text class="number num-3" x="482.5" y="53.5">3</text><rect class="cell mine" height="13" width="13" x="475" y="55" /><text class="emoji" x="476.5" y="68.5">💣</text><rect class="cell safe" height="13" width="13" x="475" y="70" /><text class="number num-4" x="482.5" y="83.5">4</text><rect class="cell mine" height="13" width="13" x="475" y="85" /><text class="emoji" x="476.5" y="98.5">💣</text><rect class="cell safe" height="13" width="13" x="475" y="100" /><text class="number num-4" x="482.5" y="113.5">4</text><rect class="cell empty" height="13" width="13" x="475" y="115" /><text class="number num-4" x="482.5" y="128.5">4</text><rect class="cell mine" height="13" width="13" x="475" y="130" /><text class="emoji" x="476.5" y="143.5">💣</text><rect class="cell mine" height="13" width="13" x="490" y="40" /><text class="emoji" x="491.5" y="53.5">💣</text><rect class="cell safe" height="13" width="13" x="490" y="55" /><text class="number num-5" x="497.5" y="68.5">5</text><rect class="cell safe" height="13" width="13" x="490" y="70" /><text class="number num-4" x="497.5" y="83.5">4</text><rect class="cell safe" height="13" width="13" x="490" y="85" /><text class="number num-2" x="497.5" y="98.5">2</text><rect class="cell safe" height="13" width="13" x="490" y="100" /><text class="number num-3" x="497.5" y="113.5">3</text><rect class="cell mine" height="13" width="13" x="490" y="115" /><text class="emoji" x="491.5" y="128.5">💣</text><rect class="cell mine" height="13" width="13" x="490" y="130" /><text class="emoji" x="491.5" y="143.5">💣</text><rect class="cell mine" height="13" width="13" x="505" y="40" /><text class="emoji" x="506.5" y="53.5">💣</text><rect class="cell mine" height="13" width="13" x="505" y="55" /><text class="emoji" x="506.5" y="68.5">💣</text><rect class="cell mine" height="13" width="13" x="505" y="70" /><text class="emoji" x="506.5" y="83.5">💣</text><rect class="cell empty" height="13" width="13" x="505" y="85" /><text class="number num-4" x="512.5" y="98.5">4</text><rect class="cell empty" height="13" width="13" x="505" y="100" /><text class="number num-4" x="512.5" y="113.5">4</text><rect class="cell mine" height="13" width="13" x="505" y="115" /><text class="emoji" x="506.5" y="128.5">💣</text><rect class="cell empty" height="13" width="13" x="505" y="130" /><text class="number num-3" x="512.5" y="143.5">3</text><rect class="cell empty" height="13" width="13" x="520" y="40" /><text class="number num-3" x="527.5" y="53.5">3</text><rect class="cell mine" height="13" width="13" x="520" y="55" /><text class="emoji" x="521.5" y="68.5">💣</text><rect class="cell mine" height="13" width="13" x="520" y="70" /><text class="emoji" x="521.5" y="83.5">💣</text><rect class="cell mine" height="13" width="13" x="520" y="85" /><text class="emoji" x="521.5" y="98.5">💣</text><rect class="cell mine" height="13" width="13" x="520" y="100" /><text class="emoji" x="521.5" y="113.5">💣</text><rect class="cell safe" height="13" width="13" x="520" y="115" /><text class="number num-2" x="527.5" y="128.5">2</text><rect class="cell empty" height="13" width="13" x="520" y="130" /><text class="number num-1" x="527.5" y="143.5">1</text><rect class="cell safe" height="13" width="13" x="535" y="40" /><text class="number num-1" x="542.5" y="53.5">1</text><rect class="cell safe" height="13" width="13" x="535" y="55" /><text class="number num-2" x="542.5" y="68.5">2</text><rect class="cell safe" height="13" width="13" x="535" y="70" /><text class="number num-4" x="542.5" y="83.5">4</text><rect class="cell safe" height="13" width="13" x="535" y="85" /><text class="number num-5" x="542.5" y="98.5">5</text><rect class="cell safe" height="13" width="13" x="535" y="100" /><text class="number num-5" x="542.5" y="113.5">5</text><rect class="cell empty" height="13" width="13" x="535" y="115" /><text class="number num-4" x="542.5" y="128.5">4</text><rect class="cell safe" height="13" width="13" x="535" y="130" /><text class="number num-2" x="542.5" y="143.5">2</text><rect class="cell empty" height="13" width="13" x="550" y="40" /><text class="number num-2" x="557.5" y="53.5">2</text><rect class="cell empty" height="13" width="13" x="550" y="55" /><text class="number num-3" x="557.5" y="68.5">3</text><rect class="cell empty" height="13" width="13" x="550" y="70" /><text class="number num-4" x="557.5" y="83.5">4</text><rect class="cell mine" height="13" width="13" x="550" y="85" /><text class="emoji" x="551.5" y="98.5">💣</text><rect class="cell mine" height="13" width="13" x="550" y="100" /><text class="emoji" x="551.5" y="113.5">💣</text><rect class="cell mine" height="13" width="13" x="550" y="115" /><text class="emoji" x="551.5" y="128.5">💣</text><rect class="cell mine" height="13" width="13" x="550" y="130" /><text class="emoji" x="551.5" y="143.5">💣</text><rect class="cell mine" height="13" width="13" x="565" y="40" /><text class="emoji" x="566.5" y="53.5">💣</text><rect class="cell mine" height="13" width="13" x="565" y="55" /><text class="emoji" x="566.5" y="68.5">💣</text><rect class="cell mine" height="13" width="13" x="565" y="70" /><text class="emoji" x="566.5" y="83.5">💣</text><rect class="cell mine" height="13" width="13" x="565" y="85" /><text class="emoji" x="566.5" y="98.5">💣</text><rect class="cell mine" height="13" width="13" x="565" y="100" /><text class="emoji" x="566.5" y="113.5">💣</text><rect class="cell mine" height="13" width="13" x="565" y="115" /><text class="emoji" x="566.5" y="128.5">💣</text><rect class="cell empty" height="13" width="13" x="565" y="130" /><text class="number num-5" x="572.5" y="143.5">5</text><rect class="cell safe" height="13" width="13" x="580" y="40" /><text class="number num-5" x="587.5" y="53.5">5</text><rect class="cell mine" height="13" width="13" x="580" y="55" /><text class="emoji" x="581.5" y="68.5">💣</text><rect class="cell mine" height="13" width="13" x="580" y="70" /><text class="emoji" x="581.5" y="83.5">💣</text><rect class="cell mine" height="13" width="13" x="580" y="85" /><text class="emoji" x="581.5" y="98.5">💣</text><rect class="cell mine" height="13" width="13" x="580" y="100" /><text class="emoji" x="581.5" y="113.5">💣</text><rect class="cell mine" height="13" width="13" x="580" y="115" /><text class="emoji" x="581.5" y="128.5">💣</text><rect class="cell mine" height="13" width="13" x="580" y="130" /><text class="emoji" x="581.5" y="143.5">💣</text><rect class="cell mine" height="13" width="13" x="595" y="40" /><text class="emoji" x="596.5" y="53.5">💣</text><rect class="cell mine" height="13" width="13" x="595" y="55" /><text class="emoji" x="596.5" y="68.5">💣</text><rect class="cell mine" height="13" width="13" x="595" y="70" /><text class="emoji" x="596.5" y="83.5">💣</text><rect class="cell mine" height="13" width="13" x="595" y="85" /><text class="emoji" x="596.5" y="98.5">💣</text><rect class="cell empty" height="13" width="13" x="595" y="100" /><text class="number num-5" x="602.5" y="113.5">5</text><rect class="cell mine" height="13" width="13" x="595" y="115" /><text class="emoji" x="596.5" y="128.5">💣</text><rect class="cell empty" height="13" width="13" x="595" y="130" /><text class="number num-3" x="602.5" y="143.5">3</text><rect class="cell safe" height="13" width="13" x="610" y="40" /><text class="number num-3" x="617.5" y="53.5">3</text><rect class="cell safe" height="13" width="13" x="610" y="55" /><text class="number num-5" x="617.5" y="68.5">5</text><rect class="cell safe" height="13" width="13" x="610" y="70" /><text class="number num-5" x="617.5" y="83.5">5</text><rect class="cell safe" height="13" width="13" x="610" y="85" /><text class="number num-3" x="617.5" y="98.5">3</text><rect class="cell safe" height="13" width="13" x="610" y="100" /><text class="number num-2" x="617.5" y="113.5">2</text><rect class="cell safe" height="13" width="13" x="610" y="115" /><text class="number num-2" x="617.5" y="128.5">2</text><rect class="cell safe" height="13" width="13" x="610" y="130" /><text class="number num-2" x="617.5" y="143.5">2</text><rect class="cell safe" height="13" width="13" x="625" y="40" /><text class="number num-1" x="632.5" y="53.5">1</text><rect class="cell mine" height="13" width="13" x="625" y="55" /><text class="emoji" x="626.5" y="68.5">💣</text><rect class="cell mine" height="13" width="13" x="625" y="70" /><text class="emoji" x="626.5" y="83.5">💣</text><rect class="cell safe" height="13" width="13" x="625" y="85" /><text class="number num-1" x="632.5" y="98.5">1</text><rect class="cell safe" height="13" width="13" x="625" y="100" /><text class="number num-1" x="632.5" y="113.5">1</text><rect class="cell safe" height="13" width="13" x="625" y="115" /><text class="number num-2" x="632.5" y="128.5">2</text><rect class="cell mine" height="13" width="13" x="625" y="130" /><text class="emoji" x="626.5" y="143.5">💣</text><rect class="cell safe" height="13" width="13" x="640" y="40" /><text class="number num-1" x="647.5" y="53.5">1</text><rect class="cell safe" height="13" width="13" x="640" y="55" /><text class="number num-2" x="647.5" y="68.5">2</text><rect class="cell safe" height="13" width="13" x="640" y="70" /><text class="number num-3" x="647.5" y="83.5">3</text><rect class="cell safe" height="13" width="13" x="640" y="85" /><text class="number num-3" x="647.5" y="98.5">3</text><rect class="cell safe" height="13" width="13" x="640" y="100" /><text class="number num-3" x="647.5" y="113.5">3</text><rect class="cell mine" height="13" width="13" x="640" y="115" /><text class="emoji" x="641.5" y="128.5">💣</text><rect class="cell safe" height="13" width="13" x="640" y="130" /><text class="number num-2" x="647.5" y="143.5">2</text><rect class="cell safe" height="13" width="13" x="655" y="40" /><rect class="cell safe" height="13" width="13" x="655" y="55" /><rect class="cell safe" height="13" width="13" x="655" y="70" /><text class="number num-1" x="662.5" y="83.5">1</text><rect class="cell mine" height="13" width="13" x="655" y="85" /><text class="emoji" x="656.5" y="98.5">💣</text><rect class="cell mine" height="13" width="13" x="655" y="100" /><text class="emoji" x="656.5" y="113.5">💣</text><rect class="cell safe" height="13" width="13" x="655" y="115" /><text class="number num-2" x="662.5" y="128.5">2</text><rect class="cell safe" height="13" width="13" x="655" y="130" /><text class="number num-1" x="662.5" y="143.5">1</text><rect class="cell safe" height="13" width="13" x="670" y="40" /><text class="number num-1" x="677.5" y="53.5">1</text><rect class="cell safe" height="13" width="13" x="670" y="55" /><text class="number num-1" x="677.5" y="68.5">1</text><rect class="cell safe" height="13" width="13" x="670" y="70" /><text class="number num-1" x="677.5" y="83.5">1</text><rect class="cell safe" height="13" width="13" x="670" y="85" /><text class="number num-2" x="677.5" y="98.5">2</text><rect class="cell safe" height="13" width="13" x="670" y="100" /><text class="number num-2" x="677.5" y="113.5">2</text><rect class="cell safe" height="13" width="13" x="670" y="115" /><text class="number num-1" x="677.5" y="128.5">1</text><rect class="cell safe" height="13" width="13" x="670" y="130" /><rect class="cell mine" height="13" width="13" x="685" y="40" /><text class="emoji" x="686.5" y="53.5">💣</text><rect class="cell safe" height="13" width="13" x="685" y="55" /><text class="number num-2" x="692.5" y="68.5">2</text><rect class="cell safe" height="13" width="13" x="685" y="70" /><rect class="cell safe" height="13" width="13" x="685" y="85" /><rect class="cell safe" height="13" width="13" x="685" y="100" /><rect class="cell safe" height="13" width="13" x="685" y="115" /><rect class="cell safe" height="13" width="13" x="685" y="130" /><rect class="cell mine" height="13" width="13" x="700" y="40" /><text class="emoji" x="701.5" y="53.5">💣</text><rect class="cell safe" height="13" width="13" x="700" y="55" /><text class="number num-2" x="707.5" y="68.5">2</text><rect class="cell safe" height="13" width="13" x="700" y="70" /><rect class="cell safe" height="13" width="13" x="700" y="85" /><rect class="cell safe" height="13" width="13" x="700" y="100" /><rect class="cell safe" height="13" width="13" x="700" y="115" /><rect class="cell safe" height="13" width="13" x="700" y="130" /><rect class="cell safe" height="13" width="13" x="715" y="40" /><text class="number num-1" x="722.5" y="53.5">1</text><rect class="cell safe" height="13" width="13" x="715" y="55" /><text class="number num-1" x="722.5" y="68.5">1</text><rect class="cell safe" height="13" width="13" x="715" y="70" /><rect class="cell safe" height="13" width="13" x="715" y="85" /><text class="number num-1" x="722.5" y="98.5">1</text><rect class="cell safe" height="13" width="13" x="715" y="100" /><text class="number num-1" x="722.5" y="113.5">1</text><rect class="cell safe" height="13" width="13" x="715" y="115" /><text class="number num-1" x="722.5" y="128.5">1</text><rect class="cell safe" height="13" width="13" x="715" y="130" /><rect class="cell safe" height="13" width="13" x="730" y="40" /><rect class="cell safe" height="13" width="13" x="730" y="55" /><rect class="cell safe" height="13" width="13" x="730" y="70" /><rect class="cell safe" height="13" width="13" x="730" y="85" /><text class="number num-1" x="737.5" y="98.5">1</text><rect class="cell mine" height="13" width="13" x="730" y="100" /><text class="emoji" x="731.5" y="113.5">💣</text><rect class="cell safe" height="13" width="13" x="730" y="115" /><text class="number num-2" x="737.5" y="128.5">2</text><rect class="cell safe" height="13" width="13" x="730" y="130" /><text class="number num-1" x="737.5" y="143.5">1</text><rect class="cell safe" height="13" width="13" x="745" y="40" /><rect class="cell safe" height="13" width="13" x="745" y="55" /><rect class="cell safe" height="13" width="13" x="745" y="70" /><rect class="cell safe" height="13" width="13" x="745" y="85" /><text class="number num-1" x="752.5" y="98.5">1</text><rect class="cell safe" height="13" width="13" x="745" y="100" /><text class="number num-2" x="752.5" y="113.5">2</text><rect class="cell mine" height="13" width="13" x="745" y="115" /><text class="emoji" x="746.5" y="128.5">💣</text><rect class="cell safe" height="13" width="13" x="745" y="130" /><text class="number num-1" x="752.5" y="143.5">1</text><rect class="cell safe" height="13" width="13" x="760" y="40" /><rect class="cell safe" height="13" width="13" x="760" y="55" /><rect class="cell safe" height="13" width="13" x="760" y="70" /><rect class="cell safe" height="13" width="13" x="760" y="85" /><rect class="cell safe" height="13" width="13" x="760" y="100" /><text class="number num-1" x="767.5" y="113.5">1</text><rect class="cell safe" height="13" width="13" x="760" y="115" /><text class="number num-1" x="767.5" y="128.5">1</text><rect class="cell safe" height="13" width="13" x="760" y="130" /><text class="number num-1" x="767.5" y="143.5">1</text><rect class="cell safe" height="13" width="13" x="775" y="40" /><rect class="cell safe" height="13" width="13" x="775" y="55" /><rect class="cell safe" height="13" width="13" x="775" y="70" /><rect class="cell safe" height="13" width="13" x="775" y="85" /><rect class="cell safe" height="13" width="13" x="775" y="100" /><rect class="cell safe" height="13" width="13" x="775" y="115" /><rect class="cell safe" height="13" width="13" x="775" y="130" /><rect class="cell safe" height="13" width="13" x="790" y="40" /><rect class="cell safe" height="13" width="13" x="790" y="55" /><rect class="cell safe" height="13" width="13" x="790" y="70" /><rect class="cell safe" height="13" width="13" x="790" y="85" /><rect class="cell safe" height="13" width="13" x="790" y="100" /><rect class="cell empty" height="13" width="13" x="790" y="115" /><rect class="cell safe" height="13" width="13" x="790" y="130" /><rect class="cell safe" height="15" width="15" x="10" y="155" /><text class="legend-text" x="30" y="167">安全区 (有commit)</text><rect class="cell mine" height="15" width="15" x="160" y="155" /><text class="legend-text" x="180" y="167">地雷区 (无commit)</text><rect class="cell empty" height="15" width="15" x="310" y="155" /><text class="legend-text" x="330" y="167">空白区</text><a style="cursor: pointer;" target="_blank" xlink:href="minesweeper_game.html"><rect fill="none" height="175" opacity="0" width="815" x="0" y="0" /></a></svg>