<?xml version="1.0" encoding="utf-8" ?>
<svg baseProfile="full" height="175px" version="1.1" viewBox="0,0,815,175" width="815px" xmlns="http://www.w3.org/2000/svg" xmlns:ev="http://www.w3.org/2001/xml-events" xmlns:xlink="http://www.w3.org/1999/xlink"><defs><style type="text/css"><![CDATA[/* 基础样式 */
.title {
    font-family: 'Segoe UI', Tahoma, Geneva, Verdana, sans-serif;
    font-size: 16px;
    fill: #2c3e50;
    font-weight: bold;
}

.cell {
    stroke: #34495e;
    stroke-width: 1;
    rx: 4;
    ry: 4;
    transition: all 0.3s ease;
}

/* 格子类型 */
.cell.safe { fill: #2ecc71; }
.cell.mine { fill: #e74c3c; }
.cell.empty { fill: #3498db; }

/* 数字样式 */
.number {
    font-family: 'Courier New', monospace;
    font-weight: bold;
    text-anchor: middle;
    font-size: 14px;
    fill: #2c3e50;
}

/* 数字颜色 */
.num-1 { fill: #3498db; }
.num-2 { fill: #2ecc71; }
.num-3 { fill: #e74c3c; }
.num-4 { fill: #9b59b6; }
.num-5 { fill: #e67e22; }
.num-6 { fill: #1abc9c; }
.num-7 { fill: #d35400; }
.num-8 { fill: #2c3e50; }

.emoji {
    font-size: 16px;
    text-anchor: middle;
}

.legend-text {
    font-family: Arial, sans-serif;
    font-size: 12px;
    fill: #34495e;
}
]]></style></defs><text class="title" text-anchor="middle" x="407.5" y="20">GitHub Minesweeper - jamespaulzhang (Updated: 2025-06-27 08:18 UTC)</text><rect class="cell empty" height="13" width="13" x="10" y="40" /><text class="number num-2" x="17.5" y="53.5">2</text><rect class="cell mine" height="13" width="13" x="25" y="40" /><text class="emoji" x="26.5" y="53.5">💣</text><rect class="cell mine" height="13" width="13" x="40" y="40" /><text class="emoji" x="41.5" y="53.5">💣</text><rect class="cell mine" height="13" width="13" x="55" y="40" /><text class="emoji" x="56.5" y="53.5">💣</text><rect class="cell mine" height="13" width="13" x="70" y="40" /><text class="emoji" x="71.5" y="53.5">💣</text><rect class="cell mine" height="13" width="13" x="85" y="40" /><text class="emoji" x="86.5" y="53.5">💣</text><rect class="cell mine" height="13" width="13" x="100" y="40" /><text class="emoji" x="101.5" y="53.5">💣</text><rect class="cell mine" height="13" width="13" x="10" y="55" /><text class="emoji" x="11.5" y="68.5">💣</text><rect class="cell empty" height="13" width="13" x="25" y="55" /><text class="number num-6" x="32.5" y="68.5">6</text><rect class="cell mine" height="13" width="13" x="40" y="55" /><text class="emoji" x="41.5" y="68.5">💣</text><rect class="cell mine" height="13" width="13" x="55" y="55" /><text class="emoji" x="56.5" y="68.5">💣</text><rect class="cell mine" height="13" width="13" x="70" y="55" /><text class="emoji" x="71.5" y="68.5">💣</text><rect class="cell mine" height="13" width="13" x="85" y="55" /><text class="emoji" x="86.5" y="68.5">💣</text><rect class="cell mine" height="13" width="13" x="100" y="55" /><text class="emoji" x="101.5" y="68.5">💣</text><rect class="cell mine" height="13" width="13" x="10" y="70" /><text class="emoji" x="11.5" y="83.5">💣</text><rect class="cell empty" height="13" width="13" x="25" y="70" /><text class="number num-6" x="32.5" y="83.5">6</text><rect class="cell mine" height="13" width="13" x="40" y="70" /><text class="emoji" x="41.5" y="83.5">💣</text><rect class="cell empty" height="13" width="13" x="55" y="70" /><text class="number num-7" x="62.5" y="83.5">7</text><rect class="cell mine" height="13" width="13" x="70" y="70" /><text class="emoji" x="71.5" y="83.5">💣</text><rect class="cell mine" height="13" width="13" x="85" y="70" /><text class="emoji" x="86.5" y="83.5">💣</text><rect class="cell empty" height="13" width="13" x="100" y="70" /><text class="number num-5" x="107.5" y="83.5">5</text><rect class="cell mine" height="13" width="13" x="10" y="85" /><text class="emoji" x="11.5" y="98.5">💣</text><rect class="cell mine" height="13" width="13" x="25" y="85" /><text class="emoji" x="26.5" y="98.5">💣</text><rect class="cell empty" height="13" width="13" x="40" y="85" /><text class="number num-5" x="47.5" y="98.5">5</text><rect class="cell mine" height="13" width="13" x="55" y="85" /><text class="emoji" x="56.5" y="98.5">💣</text><rect class="cell mine" height="13" width="13" x="70" y="85" /><text class="emoji" x="71.5" y="98.5">💣</text><rect class="cell mine" height="13" width="13" x="85" y="85" /><text class="emoji" x="86.5" y="98.5">💣</text><rect class="cell mine" height="13" width="13" x="100" y="85" /><text class="emoji" x="101.5" y="98.5">💣</text><rect class="cell empty" height="13" width="13" x="10" y="100" /><text class="number num-4" x="17.5" y="113.5">4</text><rect class="cell mine" height="13" width="13" x="25" y="100" /><text class="emoji" x="26.5" y="113.5">💣</text><rect class="cell mine" height="13" width="13" x="40" y="100" /><text class="emoji" x="41.5" y="113.5">💣</text><rect class="cell empty" height="13" width="13" x="55" y="100" /><text class="number num-5" x="62.5" y="113.5">5</text><rect class="cell empty" height="13" width="13" x="70" y="100" /><text class="number num-6" x="77.5" y="113.5">6</text><rect class="cell mine" height="13" width="13" x="85" y="100" /><text class="emoji" x="86.5" y="113.5">💣</text><rect class="cell mine" height="13" width="13" x="100" y="100" /><text class="emoji" x="101.5" y="113.5">💣</text><rect class="cell mine" height="13" width="13" x="10" y="115" /><text class="emoji" x="11.5" y="128.5">💣</text><rect class="cell empty" height="13" width="13" x="25" y="115" /><text class="number num-3" x="32.5" y="128.5">3</text><rect class="cell empty" height="13" width="13" x="40" y="115" /><text class="number num-3" x="47.5" y="128.5">3</text><rect class="cell mine" height="13" width="13" x="55" y="115" /><text class="emoji" x="56.5" y="128.5">💣</text><rect class="cell mine" height="13" width="13" x="70" y="115" /><text class="emoji" x="71.5" y="128.5">💣</text><rect class="cell empty" height="13" width="13" x="85" y="115" /><text class="number num-5" x="92.5" y="128.5">5</text><rect class="cell empty" height="13" width="13" x="100" y="115" /><text class="number num-3" x="107.5" y="128.5">3</text><rect class="cell empty" height="13" width="13" x="10" y="130" /><text class="number num-1" x="17.5" y="143.5">1</text><rect class="cell empty" height="13" width="13" x="25" y="130" /><text class="number num-2" x="32.5" y="143.5">2</text><rect class="cell empty" height="13" width="13" x="40" y="130" /><text class="number num-3" x="47.5" y="143.5">3</text><rect class="cell empty" height="13" width="13" x="55" y="130" /><text class="number num-6" x="62.5" y="143.5">6</text><rect class="cell mine" height="13" width="13" x="70" y="130" /><text class="emoji" x="71.5" y="143.5">💣</text><rect class="cell mine" height="13" width="13" x="85" y="130" /><text class="emoji" x="86.5" y="143.5">💣</text><rect class="cell empty" height="13" width="13" x="100" y="130" /><text class="number num-3" x="107.5" y="143.5">3</text><rect class="cell empty" height="13" width="13" x="10" y="145" /><text class="number num-2" x="17.5" y="158.5">2</text><rect class="cell empty" height="13" width="13" x="25" y="145" /><text class="number num-4" x="32.5" y="158.5">4</text><rect class="cell mine" height="13" width="13" x="40" y="145" /><text class="emoji" x="41.5" y="158.5">💣</text><rect class="cell mine" height="13" width="13" x="55" y="145" /><text class="emoji" x="56.5" y="158.5">💣</text><rect class="cell mine" height="13" width="13" x="70" y="145" /><text class="emoji" x="71.5" y="158.5">💣</text><rect class="cell mine" height="13" width="13" x="85" y="145" /><text class="emoji" x="86.5" y="158.5">💣</text><rect class="cell mine" height="13" width="13" x="100" y="145" /><text class="emoji" x="101.5" y="158.5">💣</text><rect class="cell mine" height="13" width="13" x="10" y="160" /><text class="emoji" x="11.5" y="173.5">💣</text><rect class="cell mine" height="13" width="13" x="25" y="160" /><text class="emoji" x="26.5" y="173.5">💣</text><rect class="cell mine" height="13" width="13" x="40" y="160" /><text class="emoji" x="41.5" y="173.5">💣</text><rect class="cell mine" height="13" width="13" x="55" y="160" /><text class="emoji" x="56.5" y="173.5">💣</text><rect class="cell mine" height="13" width="13" x="70" y="160" /><text class="emoji" x="71.5" y="173.5">💣</text><rect class="cell empty" height="13" width="13" x="85" y="160" /><text class="number num-7" x="92.5" y="173.5">7</text><rect class="cell mine" height="13" width="13" x="100" y="160" /><text class="emoji" x="101.5" y="173.5">💣</text><rect class="cell mine" height="13" width="13" x="10" y="175" /><text class="emoji" x="11.5" y="188.5">💣</text><rect class="cell mine" height="13" width="13" x="25" y="175" /><text class="emoji" x="26.5" y="188.5">💣</text><rect class="cell empty" height="13" width="13" x="40" y="175" /><text class="number num-8" x="47.5" y="188.5">8</text><rect class="cell mine" height="13" width="13" x="55" y="175" /><text class="emoji" x="56.5" y="188.5">💣</text><rect class="cell empty" height="13" width="13" x="70" y="175" /><text class="number num-7" x="77.5" y="188.5">7</text><rect class="cell mine" height="13" width="13" x="85" y="175" /><text class="emoji" x="86.5" y="188.5">💣</text><rect class="cell mine" height="13" width="13" x="100" y="175" /><text class="emoji" x="101.5" y="188.5">💣</text><rect class="cell mine" height="13" width="13" x="10" y="190" /><text class="emoji" x="11.5" y="203.5">💣</text><rect class="cell mine" height="13" width="13" x="25" y="190" /><text class="emoji" x="26.5" y="203.5">💣</text><rect class="cell mine" height="13" width="13" x="40" y="190" /><text class="emoji" x="41.5" y="203.5">💣</text><rect class="cell mine" height="13" width="13" x="55" y="190" /><text class="emoji" x="56.5" y="203.5">💣</text><rect class="cell mine" height="13" width="13" x="70" y="190" /><text class="emoji" x="71.5" y="203.5">💣</text><rect class="cell mine" height="13" width="13" x="85" y="190" /><text class="emoji" x="86.5" y="203.5">💣</text><rect class="cell mine" height="13" width="13" x="100" y="190" /><text class="emoji" x="101.5" y="203.5">💣</text><rect class="cell mine" height="13" width="13" x="10" y="205" /><text class="emoji" x="11.5" y="218.5">💣</text><rect class="cell mine" height="13" width="13" x="25" y="205" /><text class="emoji" x="26.5" y="218.5">💣</text><rect class="cell mine" height="13" width="13" x="40" y="205" /><text class="emoji" x="41.5" y="218.5">💣</text><rect class="cell safe" height="13" width="13" x="55" y="205" /><text class="number num-6" x="62.5" y="218.5">6</text><rect class="cell empty" height="13" width="13" x="70" y="205" /><text class="number num-5" x="77.5" y="218.5">5</text><rect class="cell safe" height="13" width="13" x="85" y="205" /><text class="number num-7" x="92.5" y="218.5">7</text><rect class="cell mine" height="13" width="13" x="100" y="205" /><text class="emoji" x="101.5" y="218.5">💣</text><rect class="cell empty" height="13" width="13" x="10" y="220" /><text class="number num-4" x="17.5" y="233.5">4</text><rect class="cell mine" height="13" width="13" x="25" y="220" /><text class="emoji" x="26.5" y="233.5">💣</text><rect class="cell mine" height="13" width="13" x="40" y="220" /><text class="emoji" x="41.5" y="233.5">💣</text><rect class="cell safe" height="13" width="13" x="55" y="220" /><text class="number num-5" x="62.5" y="233.5">5</text><rect class="cell mine" height="13" width="13" x="70" y="220" /><text class="emoji" x="71.5" y="233.5">💣</text><rect class="cell mine" height="13" width="13" x="85" y="220" /><text class="emoji" x="86.5" y="233.5">💣</text><rect class="cell mine" height="13" width="13" x="100" y="220" /><text class="emoji" x="101.5" y="233.5">💣</text><rect class="cell empty" height="13" width="13" x="10" y="235" /><text class="number num-4" x="17.5" y="248.5">4</text><rect class="cell mine" height="13" width="13" x="25" y="235" /><text class="emoji" x="26.5" y="248.5">💣</text><rect class="cell mine" height="13" width="13" x="40" y="235" /><text class="emoji" x="41.5" y="248.5">💣</text><rect class="cell safe" height="13" width="13" x="55" y="235" /><text class="number num-6" x="62.5" y="248.5">6</text><rect class="cell mine" height="13" width="13" x="70" y="235" /><text class="emoji" x="71.5" y="248.5">💣</text><rect class="cell mine" height="13" width="13" x="85" y="235" /><text class="emoji" x="86.5" y="248.5">💣</text><rect class="cell safe" height="13" width="13" x="100" y="235" /><text class="number num-3" x="107.5" y="248.5">3</text><rect class="cell mine" height="13" width="13" x="10" y="250" /><text class="emoji" x="11.5" y="263.5">💣</text><rect class="cell mine" height="13" width="13" x="25" y="250" /><text class="emoji" x="26.5" y="263.5">💣</text><rect class="cell mine" height="13" width="13" x="40" y="250" /><text class="emoji" x="41.5" y="263.5">💣</text><rect class="cell safe" height="13" width="13" x="55" y="250" /><text class="number num-7" x="62.5" y="263.5">7</text><rect class="cell mine" height="13" width="13" x="70" y="250" /><text class="emoji" x="71.5" y="263.5">💣</text><rect class="cell empty" height="13" width="13" x="85" y="250" /><text class="number num-6" x="92.5" y="263.5">6</text><rect class="cell safe" height="13" width="13" x="100" y="250" /><text class="number num-3" x="107.5" y="263.5">3</text><rect class="cell mine" height="13" width="13" x="10" y="265" /><text class="emoji" x="11.5" y="278.5">💣</text><rect class="cell mine" height="13" width="13" x="25" y="265" /><text class="emoji" x="26.5" y="278.5">💣</text><rect class="cell mine" height="13" width="13" x="40" y="265" /><text class="emoji" x="41.5" y="278.5">💣</text><rect class="cell mine" height="13" width="13" x="55" y="265" /><text class="emoji" x="56.5" y="278.5">💣</text><rect class="cell mine" height="13" width="13" x="70" y="265" /><text class="emoji" x="71.5" y="278.5">💣</text><rect class="cell mine" height="13" width="13" x="85" y="265" /><text class="emoji" x="86.5" y="278.5">💣</text><rect class="cell mine" height="13" width="13" x="100" y="265" /><text class="emoji" x="101.5" y="278.5">💣</text><rect class="cell mine" height="13" width="13" x="10" y="280" /><text class="emoji" x="11.5" y="293.5">💣</text><rect class="cell mine" height="13" width="13" x="25" y="280" /><text class="emoji" x="26.5" y="293.5">💣</text><rect class="cell mine" height="13" width="13" x="40" y="280" /><text class="emoji" x="41.5" y="293.5">💣</text><rect class="cell mine" height="13" width="13" x="55" y="280" /><text class="emoji" x="56.5" y="293.5">💣</text><rect class="cell empty" height="13" width="13" x="70" y="280" /><text class="number num-6" x="77.5" y="293.5">6</text><rect class="cell mine" height="13" width="13" x="85" y="280" /><text class="emoji" x="86.5" y="293.5">💣</text><rect class="cell empty" height="13" width="13" x="100" y="280" /><text class="number num-4" x="107.5" y="293.5">4</text><rect class="cell mine" height="13" width="13" x="10" y="295" /><text class="emoji" x="11.5" y="308.5">💣</text><rect class="cell empty" height="13" width="13" x="25" y="295" /><text class="number num-6" x="32.5" y="308.5">6</text><rect class="cell mine" height="13" width="13" x="40" y="295" /><text class="emoji" x="41.5" y="308.5">💣</text><rect class="cell mine" height="13" width="13" x="55" y="295" /><text class="emoji" x="56.5" y="308.5">💣</text><rect class="cell empty" height="13" width="13" x="70" y="295" /><text class="number num-5" x="77.5" y="308.5">5</text><rect class="cell empty" height="13" width="13" x="85" y="295" /><text class="number num-5" x="92.5" y="308.5">5</text><rect class="cell mine" height="13" width="13" x="100" y="295" /><text class="emoji" x="101.5" y="308.5">💣</text><rect class="cell mine" height="13" width="13" x="10" y="310" /><text class="emoji" x="11.5" y="323.5">💣</text><rect class="cell empty" height="13" width="13" x="25" y="310" /><text class="number num-5" x="32.5" y="323.5">5</text><rect class="cell empty" height="13" width="13" x="40" y="310" /><text class="number num-4" x="47.5" y="323.5">4</text><rect class="cell empty" height="13" width="13" x="55" y="310" /><text class="number num-5" x="62.5" y="323.5">5</text><rect class="cell mine" height="13" width="13" x="70" y="310" /><text class="emoji" x="71.5" y="323.5">💣</text><rect class="cell mine" height="13" width="13" x="85" y="310" /><text class="emoji" x="86.5" y="323.5">💣</text><rect class="cell mine" height="13" width="13" x="100" y="310" /><text class="emoji" x="101.5" y="323.5">💣</text><rect class="cell mine" height="13" width="13" x="10" y="325" /><text class="emoji" x="11.5" y="338.5">💣</text><rect class="cell mine" height="13" width="13" x="25" y="325" /><text class="emoji" x="26.5" y="338.5">💣</text><rect class="cell empty" height="13" width="13" x="40" y="325" /><text class="number num-2" x="47.5" y="338.5">2</text><rect class="cell mine" height="13" width="13" x="55" y="325" /><text class="emoji" x="56.5" y="338.5">💣</text><rect class="cell mine" height="13" width="13" x="70" y="325" /><text class="emoji" x="71.5" y="338.5">💣</text><rect class="cell safe" height="13" width="13" x="85" y="325" /><text class="number num-6" x="92.5" y="338.5">6</text><rect class="cell mine" height="13" width="13" x="100" y="325" /><text class="emoji" x="101.5" y="338.5">💣</text><rect class="cell safe" height="13" width="13" x="10" y="340" /><text class="number num-2" x="17.5" y="353.5">2</text><rect class="cell safe" height="13" width="13" x="25" y="340" /><text class="number num-3" x="32.5" y="353.5">3</text><rect class="cell safe" height="13" width="13" x="40" y="340" /><text class="number num-4" x="47.5" y="353.5">4</text><rect class="cell safe" height="13" width="13" x="55" y="340" /><text class="number num-6" x="62.5" y="353.5">6</text><rect class="cell mine" height="13" width="13" x="70" y="340" /><text class="emoji" x="71.5" y="353.5">💣</text><rect class="cell safe" height="13" width="13" x="85" y="340" /><text class="number num-5" x="92.5" y="353.5">5</text><rect class="cell safe" height="13" width="13" x="100" y="340" /><text class="number num-2" x="107.5" y="353.5">2</text><rect class="cell safe" height="13" width="13" x="10" y="355" /><text class="number num-2" x="17.5" y="368.5">2</text><rect class="cell safe" height="13" width="13" x="25" y="355" /><text class="number num-4" x="32.5" y="368.5">4</text><rect class="cell mine" height="13" width="13" x="40" y="355" /><text class="emoji" x="41.5" y="368.5">💣</text><rect class="cell mine" height="13" width="13" x="55" y="355" /><text class="emoji" x="56.5" y="368.5">💣</text><rect class="cell mine" height="13" width="13" x="70" y="355" /><text class="emoji" x="71.5" y="368.5">💣</text><rect class="cell mine" height="13" width="13" x="85" y="355" /><text class="emoji" x="86.5" y="368.5">💣</text><rect class="cell safe" height="13" width="13" x="100" y="355" /><text class="number num-3" x="107.5" y="368.5">3</text><rect class="cell mine" height="13" width="13" x="10" y="370" /><text class="emoji" x="11.5" y="383.5">💣</text><rect class="cell mine" height="13" width="13" x="25" y="370" /><text class="emoji" x="26.5" y="383.5">💣</text><rect class="cell mine" height="13" width="13" x="40" y="370" /><text class="emoji" x="41.5" y="383.5">💣</text><rect class="cell mine" height="13" width="13" x="55" y="370" /><text class="emoji" x="56.5" y="383.5">💣</text><rect class="cell mine" height="13" width="13" x="70" y="370" /><text class="emoji" x="71.5" y="383.5">💣</text><rect class="cell mine" height="13" width="13" x="85" y="370" /><text class="emoji" x="86.5" y="383.5">💣</text><rect class="cell mine" height="13" width="13" x="100" y="370" /><text class="emoji" x="101.5" y="383.5">💣</text><rect class="cell mine" height="13" width="13" x="10" y="385" /><text class="emoji" x="11.5" y="398.5">💣</text><rect class="cell safe" height="13" width="13" x="25" y="385" /><text class="number num-7" x="32.5" y="398.5">7</text><rect class="cell safe" height="13" width="13" x="40" y="385" /><text class="number num-6" x="47.5" y="398.5">6</text><rect class="cell safe" height="13" width="13" x="55" y="385" /><text class="number num-6" x="62.5" y="398.5">6</text><rect class="cell mine" height="13" width="13" x="70" y="385" /><text class="emoji" x="71.5" y="398.5">💣</text><rect class="cell empty" height="13" width="13" x="85" y="385" /><text class="number num-6" x="92.5" y="398.5">6</text><rect class="cell safe" height="13" width="13" x="100" y="385" /><text class="number num-4" x="107.5" y="398.5">4</text><rect class="cell mine" height="13" width="13" x="10" y="400" /><text class="emoji" x="11.5" y="413.5">💣</text><rect class="cell mine" height="13" width="13" x="25" y="400" /><text class="emoji" x="26.5" y="413.5">💣</text><rect class="cell mine" height="13" width="13" x="40" y="400" /><text class="emoji" x="41.5" y="413.5">💣</text><rect class="cell mine" height="13" width="13" x="55" y="400" /><text class="emoji" x="56.5" y="413.5">💣</text><rect class="cell empty" height="13" width="13" x="70" y="400" /><text class="number num-4" x="77.5" y="413.5">4</text><rect class="cell mine" height="13" width="13" x="85" y="400" /><text class="emoji" x="86.5" y="413.5">💣</text><rect class="cell mine" height="13" width="13" x="100" y="400" /><text class="emoji" x="101.5" y="413.5">💣</text><rect class="cell mine" height="13" width="13" x="10" y="415" /><text class="emoji" x="11.5" y="428.5">💣</text><rect class="cell mine" height="13" width="13" x="25" y="415" /><text class="emoji" x="26.5" y="428.5">💣</text><rect class="cell mine" height="13" width="13" x="40" y="415" /><text class="emoji" x="41.5" y="428.5">💣</text><rect class="cell empty" height="13" width="13" x="55" y="415" /><text class="number num-6" x="62.5" y="428.5">6</text><rect class="cell mine" height="13" width="13" x="70" y="415" /><text class="emoji" x="71.5" y="428.5">💣</text><rect class="cell empty" height="13" width="13" x="85" y="415" /><text class="number num-6" x="92.5" y="428.5">6</text><rect class="cell mine" height="13" width="13" x="100" y="415" /><text class="emoji" x="101.5" y="428.5">💣</text><rect class="cell empty" height="13" width="13" x="10" y="430" /><text class="number num-4" x="17.5" y="443.5">4</text><rect class="cell mine" height="13" width="13" x="25" y="430" /><text class="emoji" x="26.5" y="443.5">💣</text><rect class="cell mine" height="13" width="13" x="40" y="430" /><text class="emoji" x="41.5" y="443.5">💣</text><rect class="cell empty" height="13" width="13" x="55" y="430" /><text class="number num-6" x="62.5" y="443.5">6</text><rect class="cell mine" height="13" width="13" x="70" y="430" /><text class="emoji" x="71.5" y="443.5">💣</text><rect class="cell empty" height="13" width="13" x="85" y="430" /><text class="number num-6" x="92.5" y="443.5">6</text><rect class="cell mine" height="13" width="13" x="100" y="430" /><text class="emoji" x="101.5" y="443.5">💣</text><rect class="cell empty" height="13" width="13" x="10" y="445" /><text class="number num-3" x="17.5" y="458.5">3</text><rect class="cell mine" height="13" width="13" x="25" y="445" /><text class="emoji" x="26.5" y="458.5">💣</text><rect class="cell mine" height="13" width="13" x="40" y="445" /><text class="emoji" x="41.5" y="458.5">💣</text><rect class="cell mine" height="13" width="13" x="55" y="445" /><text class="emoji" x="56.5" y="458.5">💣</text><rect class="cell empty" height="13" width="13" x="70" y="445" /><text class="number num-6" x="77.5" y="458.5">6</text><rect class="cell mine" height="13" width="13" x="85" y="445" /><text class="emoji" x="86.5" y="458.5">💣</text><rect class="cell mine" height="13" width="13" x="100" y="445" /><text class="emoji" x="101.5" y="458.5">💣</text><rect class="cell mine" height="13" width="13" x="10" y="460" /><text class="emoji" x="11.5" y="473.5">💣</text><rect class="cell empty" height="13" width="13" x="25" y="460" /><text class="number num-7" x="32.5" y="473.5">7</text><rect class="cell mine" height="13" width="13" x="40" y="460" /><text class="emoji" x="41.5" y="473.5">💣</text><rect class="cell mine" height="13" width="13" x="55" y="460" /><text class="emoji" x="56.5" y="473.5">💣</text><rect class="cell mine" height="13" width="13" x="70" y="460" /><text class="emoji" x="71.5" y="473.5">💣</text><rect class="cell mine" height="13" width="13" x="85" y="460" /><text class="emoji" x="86.5" y="473.5">💣</text><rect class="cell mine" height="13" width="13" x="100" y="460" /><text class="emoji" x="101.5" y="473.5">💣</text><rect class="cell mine" height="13" width="13" x="10" y="475" /><text class="emoji" x="11.5" y="488.5">💣</text><rect class="cell mine" height="13" width="13" x="25" y="475" /><text class="emoji" x="26.5" y="488.5">💣</text><rect class="cell mine" height="13" width="13" x="40" y="475" /><text class="emoji" x="41.5" y="488.5">💣</text><rect class="cell mine" height="13" width="13" x="55" y="475" /><text class="emoji" x="56.5" y="488.5">💣</text><rect class="cell empty" height="13" width="13" x="70" y="475" /><text class="number num-7" x="77.5" y="488.5">7</text><rect class="cell mine" height="13" width="13" x="85" y="475" /><text class="emoji" x="86.5" y="488.5">💣</text><rect class="cell mine" height="13" width="13" x="100" y="475" /><text class="emoji" x="101.5" y="488.5">💣</text><rect class="cell mine" height="13" width="13" x="10" y="490" /><text class="emoji" x="11.5" y="503.5">💣</text><rect class="cell safe" height="13" width="13" x="25" y="490" /><text class="number num-6" x="32.5" y="503.5">6</text><rect class="cell mine" height="13" width="13" x="40" y="490" /><text class="emoji" x="41.5" y="503.5">💣</text><rect class="cell mine" height="13" width="13" x="55" y="490" /><text class="emoji" x="56.5" y="503.5">💣</text><rect class="cell safe" height="13" width="13" x="70" y="490" /><text class="number num-6" x="77.5" y="503.5">6</text><rect class="cell mine" height="13" width="13" x="85" y="490" /><text class="emoji" x="86.5" y="503.5">💣</text><rect class="cell empty" height="13" width="13" x="100" y="490" /><text class="number num-4" x="107.5" y="503.5">4</text><rect class="cell empty" height="13" width="13" x="10" y="505" /><text class="number num-1" x="17.5" y="518.5">1</text><rect class="cell safe" height="13" width="13" x="25" y="505" /><text class="number num-4" x="32.5" y="518.5">4</text><rect class="cell mine" height="13" width="13" x="40" y="505" /><text class="emoji" x="41.5" y="518.5">💣</text><rect class="cell mine" height="13" width="13" x="55" y="505" /><text class="emoji" x="56.5" y="518.5">💣</text><rect class="cell empty" height="13" width="13" x="70" y="505" /><text class="number num-4" x="77.5" y="518.5">4</text><rect class="cell mine" height="13" width="13" x="85" y="505" /><text class="emoji" x="86.5" y="518.5">💣</text><rect class="cell empty" height="13" width="13" x="100" y="505" /><text class="number num-2" x="107.5" y="518.5">2</text><rect class="cell safe" height="13" width="13" x="10" y="520" /><rect class="cell safe" height="13" width="13" x="25" y="520" /><text class="number num-2" x="32.5" y="533.5">2</text><rect class="cell mine" height="13" width="13" x="40" y="520" /><text class="emoji" x="41.5" y="533.5">💣</text><rect class="cell safe" height="13" width="13" x="55" y="520" /><text class="number num-3" x="62.5" y="533.5">3</text><rect class="cell safe" height="13" width="13" x="70" y="520" /><text class="number num-2" x="77.5" y="533.5">2</text><rect class="cell safe" height="13" width="13" x="85" y="520" /><text class="number num-1" x="92.5" y="533.5">1</text><rect class="cell safe" height="13" width="13" x="100" y="520" /><text class="number num-1" x="107.5" y="533.5">1</text><rect class="cell safe" height="13" width="13" x="10" y="535" /><rect class="cell safe" height="13" width="13" x="25" y="535" /><text class="number num-1" x="32.5" y="548.5">1</text><rect class="cell safe" height="13" width="13" x="40" y="535" /><text class="number num-1" x="47.5" y="548.5">1</text><rect class="cell safe" height="13" width="13" x="55" y="535" /><text class="number num-2" x="62.5" y="548.5">2</text><rect class="cell safe" height="13" width="13" x="70" y="535" /><text class="number num-2" x="77.5" y="548.5">2</text><rect class="cell safe" height="13" width="13" x="85" y="535" /><text class="number num-2" x="92.5" y="548.5">2</text><rect class="cell safe" height="13" width="13" x="100" y="535" /><text class="number num-1" x="107.5" y="548.5">1</text><rect class="cell safe" height="13" width="13" x="10" y="550" /><text class="number num-2" x="17.5" y="563.5">2</text><rect class="cell safe" height="13" width="13" x="25" y="550" /><text class="number num-3" x="32.5" y="563.5">3</text><rect class="cell safe" height="13" width="13" x="40" y="550" /><text class="number num-2" x="47.5" y="563.5">2</text><rect class="cell safe" height="13" width="13" x="55" y="550" /><text class="number num-3" x="62.5" y="563.5">3</text><rect class="cell mine" height="13" width="13" x="70" y="550" /><text class="emoji" x="71.5" y="563.5">💣</text><rect class="cell mine" height="13" width="13" x="85" y="550" /><text class="emoji" x="86.5" y="563.5">💣</text><rect class="cell safe" height="13" width="13" x="100" y="550" /><text class="number num-2" x="107.5" y="563.5">2</text><rect class="cell mine" height="13" width="13" x="10" y="565" /><text class="emoji" x="11.5" y="578.5">💣</text><rect class="cell mine" height="13" width="13" x="25" y="565" /><text class="emoji" x="26.5" y="578.5">💣</text><rect class="cell mine" height="13" width="13" x="40" y="565" /><text class="emoji" x="41.5" y="578.5">💣</text><rect class="cell empty" height="13" width="13" x="55" y="565" /><text class="number num-4" x="62.5" y="578.5">4</text><rect class="cell mine" height="13" width="13" x="70" y="565" /><text class="emoji" x="71.5" y="578.5">💣</text><rect class="cell mine" height="13" width="13" x="85" y="565" /><text class="emoji" x="86.5" y="578.5">💣</text><rect class="cell empty" height="13" width="13" x="100" y="565" /><text class="number num-4" x="107.5" y="578.5">4</text><rect class="cell mine" height="13" width="13" x="10" y="580" /><text class="emoji" x="11.5" y="593.5">💣</text><rect class="cell mine" height="13" width="13" x="25" y="580" /><text class="emoji" x="26.5" y="593.5">💣</text><rect class="cell empty" height="13" width="13" x="40" y="580" /><text class="number num-4" x="47.5" y="593.5">4</text><rect class="cell mine" height="13" width="13" x="55" y="580" /><text class="emoji" x="56.5" y="593.5">💣</text><rect class="cell safe" height="13" width="13" x="70" y="580" /><text class="number num-6" x="77.5" y="593.5">6</text><rect class="cell mine" height="13" width="13" x="85" y="580" /><text class="emoji" x="86.5" y="593.5">💣</text><rect class="cell mine" height="13" width="13" x="100" y="580" /><text class="emoji" x="101.5" y="593.5">💣</text><rect class="cell safe" height="13" width="13" x="10" y="595" /><text class="number num-2" x="17.5" y="608.5">2</text><rect class="cell safe" height="13" width="13" x="25" y="595" /><text class="number num-2" x="32.5" y="608.5">2</text><rect class="cell safe" height="13" width="13" x="40" y="595" /><text class="number num-3" x="47.5" y="608.5">3</text><rect class="cell safe" height="13" width="13" x="55" y="595" /><text class="number num-4" x="62.5" y="608.5">4</text><rect class="cell mine" height="13" width="13" x="70" y="595" /><text class="emoji" x="71.5" y="608.5">💣</text><rect class="cell mine" height="13" width="13" x="85" y="595" /><text class="emoji" x="86.5" y="608.5">💣</text><rect class="cell empty" height="13" width="13" x="100" y="595" /><text class="number num-5" x="107.5" y="608.5">5</text><rect class="cell empty" height="13" width="13" x="10" y="610" /><text class="number num-1" x="17.5" y="623.5">1</text><rect class="cell safe" height="13" width="13" x="25" y="610" /><text class="number num-2" x="32.5" y="623.5">2</text><rect class="cell safe" height="13" width="13" x="40" y="610" /><text class="number num-2" x="47.5" y="623.5">2</text><rect class="cell mine" height="13" width="13" x="55" y="610" /><text class="emoji" x="56.5" y="623.5">💣</text><rect class="cell mine" height="13" width="13" x="70" y="610" /><text class="emoji" x="71.5" y="623.5">💣</text><rect class="cell mine" height="13" width="13" x="85" y="610" /><text class="emoji" x="86.5" y="623.5">💣</text><rect class="cell mine" height="13" width="13" x="100" y="610" /><text class="emoji" x="101.5" y="623.5">💣</text><rect class="cell mine" height="13" width="13" x="10" y="625" /><text class="emoji" x="11.5" y="638.5">💣</text><rect class="cell safe" height="13" width="13" x="25" y="625" /><text class="number num-4" x="32.5" y="638.5">4</text><rect class="cell mine" height="13" width="13" x="40" y="625" /><text class="emoji" x="41.5" y="638.5">💣</text><rect class="cell safe" height="13" width="13" x="55" y="625" /><text class="number num-4" x="62.5" y="638.5">4</text><rect class="cell safe" height="13" width="13" x="70" y="625" /><text class="number num-4" x="77.5" y="638.5">4</text><rect class="cell safe" height="13" width="13" x="85" y="625" /><text class="number num-5" x="92.5" y="638.5">5</text><rect class="cell mine" height="13" width="13" x="100" y="625" /><text class="emoji" x="101.5" y="638.5">💣</text><rect class="cell mine" height="13" width="13" x="10" y="640" /><text class="emoji" x="11.5" y="653.5">💣</text><rect class="cell safe" height="13" width="13" x="25" y="640" /><text class="number num-7" x="32.5" y="653.5">7</text><rect class="cell mine" height="13" width="13" x="40" y="640" /><text class="emoji" x="41.5" y="653.5">💣</text><rect class="cell empty" height="13" width="13" x="55" y="640" /><text class="number num-4" x="62.5" y="653.5">4</text><rect class="cell safe" height="13" width="13" x="70" y="640" /><text class="number num-3" x="77.5" y="653.5">3</text><rect class="cell mine" height="13" width="13" x="85" y="640" /><text class="emoji" x="86.5" y="653.5">💣</text><rect class="cell safe" height="13" width="13" x="100" y="640" /><text class="number num-4" x="107.5" y="653.5">4</text><rect class="cell mine" height="13" width="13" x="10" y="655" /><text class="emoji" x="11.5" y="668.5">💣</text><rect class="cell mine" height="13" width="13" x="25" y="655" /><text class="emoji" x="26.5" y="668.5">💣</text><rect class="cell mine" height="13" width="13" x="40" y="655" /><text class="emoji" x="41.5" y="668.5">💣</text><rect class="cell empty" height="13" width="13" x="55" y="655" /><text class="number num-6" x="62.5" y="668.5">6</text><rect class="cell mine" height="13" width="13" x="70" y="655" /><text class="emoji" x="71.5" y="668.5">💣</text><rect class="cell mine" height="13" width="13" x="85" y="655" /><text class="emoji" x="86.5" y="668.5">💣</text><rect class="cell mine" height="13" width="13" x="100" y="655" /><text class="emoji" x="101.5" y="668.5">💣</text><rect class="cell mine" height="13" width="13" x="10" y="670" /><text class="emoji" x="11.5" y="683.5">💣</text><rect class="cell mine" height="13" width="13" x="25" y="670" /><text class="emoji" x="26.5" y="683.5">💣</text><rect class="cell mine" height="13" width="13" x="40" y="670" /><text class="emoji" x="41.5" y="683.5">💣</text><rect class="cell mine" height="13" width="13" x="55" y="670" /><text class="emoji" x="56.5" y="683.5">💣</text><rect class="cell mine" height="13" width="13" x="70" y="670" /><text class="emoji" x="71.5" y="683.5">💣</text><rect class="cell empty" height="13" width="13" x="85" y="670" /><text class="number num-5" x="92.5" y="683.5">5</text><rect class="cell safe" height="13" width="13" x="100" y="670" /><text class="number num-3" x="107.5" y="683.5">3</text><rect class="cell mine" height="13" width="13" x="10" y="685" /><text class="emoji" x="11.5" y="698.5">💣</text><rect class="cell mine" height="13" width="13" x="25" y="685" /><text class="emoji" x="26.5" y="698.5">💣</text><rect class="cell safe" height="13" width="13" x="40" y="685" /><text class="number num-7" x="47.5" y="698.5">7</text><rect class="cell mine" height="13" width="13" x="55" y="685" /><text class="emoji" x="56.5" y="698.5">💣</text><rect class="cell safe" height="13" width="13" x="70" y="685" /><text class="number num-5" x="77.5" y="698.5">5</text><rect class="cell mine" height="13" width="13" x="85" y="685" /><text class="emoji" x="86.5" y="698.5">💣</text><rect class="cell empty" height="13" width="13" x="100" y="685" /><text class="number num-2" x="107.5" y="698.5">2</text><rect class="cell mine" height="13" width="13" x="10" y="700" /><text class="emoji" x="11.5" y="713.5">💣</text><rect class="cell mine" height="13" width="13" x="25" y="700" /><text class="emoji" x="26.5" y="713.5">💣</text><rect class="cell safe" height="13" width="13" x="40" y="700" /><text class="number num-7" x="47.5" y="713.5">7</text><rect class="cell mine" height="13" width="13" x="55" y="700" /><text class="emoji" x="56.5" y="713.5">💣</text><rect class="cell safe" height="13" width="13" x="70" y="700" /><text class="number num-6" x="77.5" y="713.5">6</text><rect class="cell empty" height="13" width="13" x="85" y="700" /><text class="number num-5" x="92.5" y="713.5">5</text><rect class="cell mine" height="13" width="13" x="100" y="700" /><text class="emoji" x="101.5" y="713.5">💣</text><rect class="cell mine" height="13" width="13" x="10" y="715" /><text class="emoji" x="11.5" y="728.5">💣</text><rect class="cell mine" height="13" width="13" x="25" y="715" /><text class="emoji" x="26.5" y="728.5">💣</text><rect class="cell mine" height="13" width="13" x="40" y="715" /><text class="emoji" x="41.5" y="728.5">💣</text><rect class="cell mine" height="13" width="13" x="55" y="715" /><text class="emoji" x="56.5" y="728.5">💣</text><rect class="cell mine" height="13" width="13" x="70" y="715" /><text class="emoji" x="71.5" y="728.5">💣</text><rect class="cell mine" height="13" width="13" x="85" y="715" /><text class="emoji" x="86.5" y="728.5">💣</text><rect class="cell mine" height="13" width="13" x="100" y="715" /><text class="emoji" x="101.5" y="728.5">💣</text><rect class="cell mine" height="13" width="13" x="10" y="730" /><text class="emoji" x="11.5" y="743.5">💣</text><rect class="cell mine" height="13" width="13" x="25" y="730" /><text class="emoji" x="26.5" y="743.5">💣</text><rect class="cell empty" height="13" width="13" x="40" y="730" /><text class="number num-5" x="47.5" y="743.5">5</text><rect class="cell mine" height="13" width="13" x="55" y="730" /><text class="emoji" x="56.5" y="743.5">💣</text><rect class="cell empty" height="13" width="13" x="70" y="730" /><text class="number num-4" x="77.5" y="743.5">4</text><rect class="cell safe" height="13" width="13" x="85" y="730" /><text class="number num-4" x="92.5" y="743.5">4</text><rect class="cell mine" height="13" width="13" x="100" y="730" /><text class="emoji" x="101.5" y="743.5">💣</text><rect class="cell mine" height="13" width="13" x="10" y="745" /><text class="emoji" x="11.5" y="758.5">💣</text><rect class="cell safe" height="13" width="13" x="25" y="745" /><text class="number num-5" x="32.5" y="758.5">5</text><rect class="cell safe" height="13" width="13" x="40" y="745" /><text class="number num-4" x="47.5" y="758.5">4</text><rect class="cell safe" height="13" width="13" x="55" y="745" /><text class="number num-3" x="62.5" y="758.5">3</text><rect class="cell safe" height="13" width="13" x="70" y="745" /><text class="number num-3" x="77.5" y="758.5">3</text><rect class="cell empty" height="13" width="13" x="85" y="745" /><text class="number num-3" x="92.5" y="758.5">3</text><rect class="cell safe" height="13" width="13" x="100" y="745" /><text class="number num-3" x="107.5" y="758.5">3</text><rect class="cell mine" height="13" width="13" x="10" y="760" /><text class="emoji" x="11.5" y="773.5">💣</text><rect class="cell empty" height="13" width="13" x="25" y="760" /><text class="number num-4" x="32.5" y="773.5">4</text><rect class="cell mine" height="13" width="13" x="40" y="760" /><text class="emoji" x="41.5" y="773.5">💣</text><rect class="cell mine" height="13" width="13" x="55" y="760" /><text class="emoji" x="56.5" y="773.5">💣</text><rect class="cell empty" height="13" width="13" x="70" y="760" /><text class="number num-5" x="77.5" y="773.5">5</text><rect class="cell mine" height="13" width="13" x="85" y="760" /><text class="emoji" x="86.5" y="773.5">💣</text><rect class="cell mine" height="13" width="13" x="100" y="760" /><text class="emoji" x="101.5" y="773.5">💣</text><rect class="cell empty" height="13" width="13" x="10" y="775" /><text class="number num-2" x="17.5" y="788.5">2</text><rect class="cell empty" height="13" width="13" x="25" y="775" /><text class="number num-4" x="32.5" y="788.5">4</text><rect class="cell mine" height="13" width="13" x="40" y="775" /><text class="emoji" x="41.5" y="788.5">💣</text><rect class="cell mine" height="13" width="13" x="55" y="775" /><text class="emoji" x="56.5" y="788.5">💣</text><rect class="cell mine" height="13" width="13" x="70" y="775" /><text class="emoji" x="71.5" y="788.5">💣</text><rect class="cell mine" height="13" width="13" x="85" y="775" /><text class="emoji" x="86.5" y="788.5">💣</text><rect class="cell empty" height="13" width="13" x="100" y="775" /><text class="number num-5" x="107.5" y="788.5">5</text><rect class="cell safe" height="13" width="13" x="10" y="790" /><text class="number num-1" x="17.5" y="803.5">1</text><rect class="cell mine" height="13" width="13" x="25" y="790" /><text class="emoji" x="26.5" y="803.5">💣</text><rect class="cell empty" height="13" width="13" x="40" y="790" /><text class="number num-5" x="47.5" y="803.5">5</text><rect class="cell mine" height="13" width="13" x="55" y="790" /><text class="emoji" x="56.5" y="803.5">💣</text><rect class="cell mine" height="13" width="13" x="70" y="790" /><text class="emoji" x="71.5" y="803.5">💣</text><rect class="cell mine" height="13" width="13" x="85" y="790" /><text class="emoji" x="86.5" y="803.5">💣</text><rect class="cell mine" height="13" width="13" x="100" y="790" /><text class="emoji" x="101.5" y="803.5">💣</text><rect class="cell empty" height="13" width="13" x="10" y="805" /><text class="number num-1" x="17.5" y="818.5">1</text><rect class="cell empty" height="13" width="13" x="25" y="805" /><text class="number num-2" x="32.5" y="818.5">2</text><rect class="cell mine" height="13" width="13" x="40" y="805" /><text class="emoji" x="41.5" y="818.5">💣</text><rect class="cell empty" height="13" width="13" x="55" y="805" /><text class="number num-4" x="62.5" y="818.5">4</text><rect class="cell mine" height="13" width="13" x="70" y="805" /><text class="emoji" x="71.5" y="818.5">💣</text><rect class="cell empty" height="13" width="13" x="85" y="805" /><text class="number num-6" x="92.5" y="818.5">6</text><rect class="cell mine" height="13" width="13" x="100" y="805" /><text class="emoji" x="101.5" y="818.5">💣</text><rect class="cell safe" height="13" width="13" x="10" y="820" /><rect class="cell safe" height="13" width="13" x="25" y="820" /><text class="number num-1" x="32.5" y="833.5">1</text><rect class="cell safe" height="13" width="13" x="40" y="820" /><text class="number num-1" x="47.5" y="833.5">1</text><rect class="cell safe" height="13" width="13" x="55" y="820" /><text class="number num-2" x="62.5" y="833.5">2</text><rect class="cell safe" height="13" width="13" x="70" y="820" /><text class="number num-2" x="77.5" y="833.5">2</text><rect class="cell mine" height="13" width="13" x="85" y="820" /><text class="emoji" x="86.5" y="833.5">💣</text><rect class="cell safe" height="13" width="13" x="100" y="820" /><text class="number num-2" x="107.5" y="833.5">2</text><rect class="cell safe" height="15" width="15" x="10" y="155" /><text class="legend-text" x="30" y="167">安全区 (有commit)</text><rect class="cell mine" height="15" width="15" x="160" y="155" /><text class="legend-text" x="180" y="167">地雷区 (无commit)</text><rect class="cell empty" height="15" width="15" x="310" y="155" /><text class="legend-text" x="330" y="167">空白区</text><a style="cursor: pointer;" target="_blank" xlink:href="minesweeper_game.html"><rect fill="none" height="175" opacity="0" width="815" x="0" y="0" /></a></svg>